<svg width="71" height="71" viewBox="0 0 71 71" fill="none" xmlns="http://www.w3.org/2000/svg">
<rect x="0.872002" y="0.0656738" width="70" height="70" rx="10" fill="#3CA0B6"/>
<rect x="47.9539" y="44.4324" width="14.6761" height="7.22479" rx="1" transform="rotate(47.1444 47.9539 44.4324)" fill="#FCFCF9"/>
<path d="M33.8081 12.9607C35.261 12.9607 36.6775 13.1167 38.0424 13.4109C37.8687 13.7869 37.6952 14.153 37.5171 14.5017C37.0621 15.3924 36.6608 16.0172 36.3178 16.3601C35.9748 16.703 35.3501 17.1044 34.4594 17.5593C33.5901 18.0033 32.6174 18.4259 31.6333 18.8669C31.2535 19.0372 30.8675 19.2139 30.4917 19.3933C24.3806 20.8819 19.8442 26.3914 19.8442 32.9607C19.8442 40.6727 26.096 46.9246 33.8081 46.9246C41.5201 46.9246 47.7719 40.6727 47.7719 32.9607C47.7719 32.3569 47.733 31.7621 47.6587 31.1785C47.7053 31.084 47.7502 30.9895 47.7973 30.8972C48.2522 30.0066 48.6536 29.3818 48.9965 29.0388C49.3395 28.6959 49.9643 28.2946 50.8549 27.8396C51.4839 27.5183 52.1673 27.2082 52.8696 26.8943C53.478 28.8078 53.8081 30.8456 53.8081 32.9607C53.8081 44.0064 44.8538 52.9607 33.8081 52.9607C22.7624 52.9607 13.8081 44.0064 13.8081 32.9607C13.8081 21.915 22.7624 12.9607 33.8081 12.9607ZM40.9467 14.2742C42.6437 14.9228 44.2298 15.7949 45.6684 16.8562C46.025 17.4577 46.4246 18.0303 46.8755 18.4812C47.4563 19.062 48.2394 19.5582 49.0268 19.9851C50.0948 21.2365 51.0103 22.6214 51.7465 24.1111C51.0023 24.4431 50.2131 24.7987 49.4907 25.1677C48.5546 25.6459 47.5707 26.2224 46.8755 26.9177C46.7671 27.0261 46.6627 27.1423 46.56 27.2634C44.8347 23.4076 41.4124 20.4772 37.2426 19.4226C37.6842 19.1356 38.0968 18.8233 38.4389 18.4812C39.1341 17.786 39.7108 16.8029 40.1889 15.8669C40.4497 15.3565 40.7029 14.8119 40.9467 14.2742Z" fill="#FCFCF9"/>
<path fill-rule="evenodd" clip-rule="evenodd" d="M43.2328 10.0264C44.6781 10.0264 46.1106 15.9838 47.9768 17.85C49.843 19.7162 55.8005 21.1488 55.8005 22.5941C55.8005 24.0394 49.843 25.4719 47.9768 27.3381C46.1106 29.2043 44.6781 35.1618 43.2328 35.1618C41.7875 35.1618 40.3549 29.2043 38.4887 27.3381C36.6225 25.4719 30.6651 24.0394 30.6651 22.5941C30.6651 21.1488 36.6225 19.7162 38.4887 17.85C40.3549 15.9838 41.7875 10.0264 43.2328 10.0264Z" fill="#FCFCF9"/>
</svg>
